<?xml version="1.0" encoding="utf-8"?>
<!-- Generator: Adobe Illustrator 16.0.3, SVG Export Plug-In . SVG Version: 6.00 Build 0)  -->
<!DOCTYPE svg PUBLIC "-//W3C//DTD SVG 1.1//EN" "http://www.w3.org/Graphics/SVG/1.1/DTD/svg11.dtd">
<svg version="1.1" id="Layer_1" xmlns="http://www.w3.org/2000/svg" xmlns:xlink="http://www.w3.org/1999/xlink" x="0px" y="0px"
	 width="240px" height="249px" viewBox="0 0 240 249" enable-background="new 0 0 240 249" xml:space="preserve">
<path fill="#FFFFFF" d="M210,211v-12.615V193h-44v-93h-23V55h-11V31h-8V0h-8v31h-8v24H97v45H74v93H30v5.385V211H0v27.472v0.467v8.39
	v0.933V249h73v-0.739v-0.933v-8.39v-0.467V220h11v-7h18v7h12v-44.727c-6-2.297-9.569-7.803-9.569-14.234
	c0-8.496,6.878-15.383,15.373-15.383c8.496,0,15.337,6.887,15.337,15.383c0,6.255-4.141,11.633-9.141,14.037V220h11v-8h17v8h13
	v18.938V249h73v-10.062V211H210z"/>
</svg>
